<?xml version="1.0" encoding="UTF-8"?>
<svg version="1.1" xmlns="http://www.w3.org/2000/svg" width="302" height="246">
<path d="M0 0 C2.71484375 -0.33203125 2.71484375 -0.33203125 6 0 C8.31640625 2.17578125 8.31640625 2.17578125 10.5625 5.3125 C10.98031738 5.88572998 11.39813477 6.45895996 11.82861328 7.04956055 C13.24650519 9.01512161 14.62680924 11.00296844 16 13 C16.75724365 14.10021484 16.75724365 14.10021484 17.52978516 15.22265625 C19.70715342 18.39706178 21.87740054 21.57603228 24.0324707 24.765625 C27.62625911 30.06739947 31.36238055 35.2230711 35.25 40.3125 C39.09636198 45.35931086 42.75342996 50.47518521 46.1875 55.8125 C46.56229492 56.39362549 46.93708984 56.97475098 47.32324219 57.57348633 C50.58495293 62.73529015 51.13694519 66.29489843 51.125 72.375 C51.12886719 74.33566406 51.12886719 74.33566406 51.1328125 76.3359375 C51 80 51 80 50.11328125 82.46484375 C49.9121932 86.96505567 53.29499166 89.86369235 56.0625 93.1875 C57.36107734 94.79915674 58.65924279 96.41114544 59.95703125 98.0234375 C60.62814941 98.84682617 61.29926758 99.67021484 61.99072266 100.51855469 C65.13668273 104.40379626 68.19112075 108.3586075 71.25 112.3125 C72.42165117 113.8191845 73.59352101 115.32569899 74.765625 116.83203125 C78.31896543 121.40638694 81.84784845 125.99917101 85.375 130.59375 C88.56628042 134.74241454 91.78433086 138.87023202 95 143 C105.67542125 156.71655866 105.67542125 156.71655866 110.68457031 163.28271484 C111.63852278 164.52809377 112.59676901 165.77018747 113.55761719 167.01025391 C115.21275274 169.14687455 116.85700399 171.29153601 118.5 173.4375 C119.0170752 174.10023926 119.53415039 174.76297852 120.06689453 175.44580078 C123.84833693 180.41753382 126.60235013 185.02423758 125.875 191.5 C125.08502754 196.96550714 122.62534936 200.27904185 118.875 204.25 C113.96748436 207.23718343 109.14532868 208.46966446 103.41015625 207.61328125 C95.56850434 205.13633419 92.23675364 199.69471759 88 193 C87.23828271 191.8567617 86.47251781 190.71621187 85.703125 189.578125 C83.57766893 186.42977714 81.47893314 183.26459201 79.38574219 180.09472656 C76.89306466 176.32672564 74.38270489 172.57050869 71.875 168.8125 C70.85669656 167.28520577 69.83846568 165.75786316 68.8203125 164.23046875 C68.33852539 163.50778809 67.85673828 162.78510742 67.36035156 162.04052734 C61.75 153.625 61.75 153.625 59.97949219 150.96899414 C58.72149537 149.08215407 57.46322589 147.19549575 56.20458984 145.30908203 C53.00803619 140.51717498 49.81459378 135.723309 46.63195801 130.92214966 C45.1011786 128.61339757 43.56849814 126.30591049 42.03564453 123.99853516 C41.25748641 122.82622375 40.48015144 121.65336556 39.70361328 120.47998047 C37.15961832 116.63687901 34.5926967 112.8105255 32 109 C31.41847168 108.14100098 30.83694336 107.28200195 30.23779297 106.39697266 C29.46266357 105.2994165 29.46266357 105.2994165 28.671875 104.1796875 C28.01977051 103.24745361 28.01977051 103.24745361 27.35449219 102.29638672 C25.87556941 100.59277478 25.87556941 100.59277478 22.375 100.875 C21.70082031 100.94074219 21.02664062 101.00648437 20.33203125 101.07421875 C13.97881538 100.8720226 8.01133808 96.95934873 3.58203125 92.64453125 C1.24622899 89.8457027 -0.89201959 86.97422279 -3 84 C-3.83109122 82.85348467 -4.66315351 81.70767273 -5.49609375 80.5625 C-7.62746735 77.61439769 -9.72681819 74.64484233 -11.81982422 71.66943359 C-14.83035296 67.41084949 -17.92595573 63.21280966 -21 59 C-22.33364429 57.16689285 -23.66697509 55.3335576 -25 53.5 C-25.98033203 52.15228516 -25.98033203 52.15228516 -26.98046875 50.77734375 C-28.37951967 48.85331048 -29.77791276 46.92879876 -31.17578125 45.00390625 C-31.88089844 44.03324219 -32.58601563 43.06257813 -33.3125 42.0625 C-33.94800781 41.18722656 -34.58351563 40.31195313 -35.23828125 39.41015625 C-36.37489652 37.85518592 -37.53999394 36.32045707 -38.73828125 34.8125 C-40 33 -40 33 -39.875 30.9375 C-38.83948046 28.64456388 -38.09495692 27.42157791 -36 26 C-32.94244587 26.22054489 -31.4127372 26.61599766 -29.1484375 28.72265625 C-28.56320313 29.49480469 -27.97796875 30.26695313 -27.375 31.0625 C-26.68535156 31.97128906 -25.99570312 32.88007812 -25.28515625 33.81640625 C-22.26833559 38.01932734 -19.32831896 42.2706357 -16.41943359 46.54882812 C-11.81210908 53.32069916 -7.03618146 59.96207463 -2.203125 66.57421875 C-0.09733579 69.4598595 1.94957813 72.37457495 3.953125 75.33203125 C9.84875775 84.30556175 9.84875775 84.30556175 18.875 89.65234375 C21.03550279 90.00580836 23.00179551 90.07037306 25.1875 90 C29.96209264 90 31.30341348 91.02232303 35 94 C37.10037831 96.56999428 38.85903517 99.31794295 40.625 102.125 C41.55396565 103.56556992 42.48369929 105.00564477 43.4140625 106.4453125 C43.94765381 107.27716064 44.48124512 108.10900879 45.03100586 108.96606445 C49.08440354 115.21176476 53.24616556 121.38637333 57.38256836 127.57727051 C60.01369956 131.51840719 62.63740077 135.46448104 65.26171875 139.41015625 C70.23568213 146.88629261 75.21891757 154.35619598 80.20838928 161.82199097 C83.16574332 166.24816281 86.11543373 170.67919904 89.05393982 175.11790466 C90.96553021 178.00058156 92.88991336 180.87464617 94.8125 183.75 C95.48047607 184.76586182 96.14845215 185.78172363 96.83666992 186.82836914 C97.76249878 188.20496704 97.76249878 188.20496704 98.70703125 189.609375 C99.2275708 190.39280273 99.74811035 191.17623047 100.28442383 191.98339844 C102.31440655 194.36957422 104.17537149 195.65480914 107 197 C110.73093378 196.77752165 110.73093378 196.77752165 114 196 C114.93144554 190.03616121 114.47121364 185.93522936 110.875 181 C109.72756684 179.56367409 108.57790425 178.12888687 107.40429688 176.71386719 C105.19019571 174.01167835 103.07224824 171.23609003 100.93798828 168.47070312 C99.11507712 166.11216146 97.28173323 163.76209604 95.4453125 161.4140625 C92.61259918 157.78924146 89.79998915 154.15015088 87 150.5 C83.08468681 145.39919918 79.14003969 140.32199537 75.1875 135.25 C70.59529918 129.35568163 66.0309829 123.44149999 61.5 117.5 C56.77907813 111.31059029 52.02709539 105.14617084 47.25 99 C46.33637695 97.8234082 46.33637695 97.8234082 45.40429688 96.62304688 C44.84291016 95.90181641 44.28152344 95.18058594 43.703125 94.4375 C42.95530762 93.47650391 42.95530762 93.47650391 42.19238281 92.49609375 C41.07856043 91.04114254 41.07856043 91.04114254 40 90 C39.9010706 87.83519203 39.870289 85.66706215 39.875 83.5 C39.87242188 82.3140625 39.86984375 81.128125 39.8671875 79.90625 C40 77 40 77 41 76 C41.56807338 67.3723856 37.91761157 61.70163231 33 55 C32.48115234 54.28569824 31.96230469 53.57139648 31.42773438 52.83544922 C27.84555204 47.91146982 24.22444743 43.01733317 20.58740234 38.13378906 C17.351725 33.7843858 14.16431655 29.40149294 11 25 C10.51724609 24.33162109 10.03449219 23.66324219 9.53710938 22.97460938 C7.89388259 20.69555119 6.25873278 18.4108713 4.625 16.125 C4.10019043 15.39845215 3.57538086 14.6719043 3.03466797 13.92333984 C0.52394643 10.39291945 -1.64482539 7.16348825 -3 3 C-2.34 3 -1.68 3 -1 3 C-0.67 2.01 -0.34 1.02 0 0 Z " fill="#f57c00" transform="translate(85,25)"/>
<path d="M0 0 C1.08087891 -0.03673828 1.08087891 -0.03673828 2.18359375 -0.07421875 C8.68488979 -0.10948799 12.72108094 1.87911899 17.609375 6.26953125 C21.16475601 10.42594095 23.74558114 14.11174341 25.5 19.375 C25.726875 19.99375 25.95375 20.6125 26.1875 21.25 C30.54815953 35.64017646 23.7403496 52.87126501 17.19921875 65.4921875 C14.42810437 70.19352638 11.0596403 74.25588774 7.5 78.375 C6.68595703 79.40560547 6.68595703 79.40560547 5.85546875 80.45703125 C0.92807606 86.53534779 -5.10880451 90.92320177 -11.5 95.375 C-12.39138672 96.02662109 -12.39138672 96.02662109 -13.30078125 96.69140625 C-17.74201906 99.61780326 -22.83408942 100.56419746 -27.93823242 101.79492188 C-32.61945017 102.97734852 -36.0201788 104.70039807 -39.921875 107.45703125 C-41.5 108.375 -41.5 108.375 -44.375 108.375 C-46.5 107.375 -46.5 107.375 -48.5 104.375 C-48.5 101.27234324 -47.36009082 100.22343173 -45.25 97.9375 C-40.36982051 94.11312857 -34.27252786 92.42881901 -28.5 90.375 C-11.31279584 84.2367128 -0.16704066 74.28505899 8.5 58.375 C14.04250395 46.53846614 18.32640078 32.8464821 13.9375 20 C11.71581807 14.99925304 9.5541313 13.37922448 4.5 11.375 C-4.20550304 9.36786492 -12.80096526 12.3142622 -20.2890625 16.8828125 C-33.02190125 25.47635385 -41.48497779 36.21769162 -47.5 50.375 C-47.9021875 51.28765625 -48.304375 52.2003125 -48.71875 53.140625 C-51.97126941 61.82949827 -52.04027095 70.50719039 -52.1730957 79.70581055 C-52.19073975 80.75164307 -52.20838379 81.79747559 -52.2265625 82.875 C-52.23252441 83.8134375 -52.23848633 84.751875 -52.24462891 85.71875 C-52.52624908 88.64803056 -53.12517176 90.77332254 -54.5 93.375 C-57.5 94.3125 -57.5 94.3125 -60.5 94.375 C-62.5 92.375 -62.5 92.375 -62.66015625 89.00390625 C-62.63753956 87.64823533 -62.60457133 86.29270669 -62.5625 84.9375 C-62.38410785 79.58768929 -62.38410785 79.58768929 -63.5 74.375 C-65.02667684 56.36021324 -56.23032061 39.03960693 -45.13671875 25.44140625 C-41.22934631 20.81668181 -37.11223532 16.30426971 -32.5 12.375 C-31.84 12.375 -31.18 12.375 -30.5 12.375 C-30.5 11.715 -30.5 11.055 -30.5 10.375 C-28.15028386 9.07464229 -25.79575663 7.78470531 -23.4375 6.5 C-22.78072266 6.13519531 -22.12394531 5.77039063 -21.44726562 5.39453125 C-14.41362527 1.58319904 -7.96182506 0.01424298 0 0 Z " fill="#f57c00" transform="translate(215.5,24.625)"/>
<path d="M0 0 C2.5 0.875 2.5 0.875 3.96875 2.98046875 C4.5 5.875 4.5 5.875 2.5625 9.23046875 C1.56001498 10.52226267 0.53755586 11.79870192 -0.5 13.0625 C-1.04237305 13.75303467 -1.58474609 14.44356934 -2.14355469 15.1550293 C-3.30892711 16.63628597 -4.48207813 18.11144914 -5.66210938 19.58105469 C-8.73469335 23.4160705 -11.73654547 27.30598394 -14.75 31.1875 C-15.33998779 31.94385742 -15.92997559 32.70021484 -16.5378418 33.47949219 C-24.69576652 43.02491744 -24.69576652 43.02491744 -30.5 53.875 C-29.99225511 57.48556524 -29.99225511 57.48556524 -28.5 60.875 C-25.98588698 62.46286085 -24.4527279 62.90477275 -21.5 62.8125 C-16.40007288 60.42190916 -13.27756823 55.33475064 -10.28515625 50.76171875 C-9.71782021 49.90185112 -9.71782021 49.90185112 -9.13902283 49.02461243 C-7.94123938 47.20752163 -6.75139879 45.38541361 -5.5625 43.5625 C3.26146597 30.09111298 3.26146597 30.09111298 6.81640625 25.08203125 C7.45944702 24.17094604 7.45944702 24.17094604 8.11547852 23.24145508 C9.86346432 21.51627847 11.06518802 21.0952509 13.5 20.875 C15.75 22.8125 15.75 22.8125 17.5 24.875 C16.18274785 29.36959617 14.4110048 32.89537524 11.83203125 36.796875 C11.4741301 37.34176575 11.11622894 37.88665649 10.7474823 38.44805908 C9.60876535 40.17794584 8.46068677 41.90138841 7.3125 43.625 C6.56126008 44.76523724 5.81060438 45.90585961 5.06054688 47.046875 C-10.84487592 71.17969005 -10.84487592 71.17969005 -19.3125 73.375 C-24.65292528 74.19290297 -28.81346515 73.61749076 -33.5 70.875 C-38.39406766 66.87755543 -41.53754946 62.39152228 -42.4609375 56.078125 C-42.61421794 47.43310838 -36.02407239 40.97046774 -30.91015625 34.62792969 C-28.57999009 31.73135887 -26.29344099 28.80066487 -24 25.875 C-23.08598033 24.71350796 -22.1719178 23.55204965 -21.2578125 22.390625 C-18.44813886 18.8139485 -15.6553444 15.22451699 -12.875 11.625 C-12.44896484 11.07585937 -12.02292969 10.52671875 -11.58398438 9.9609375 C-9.33979411 7.04863844 -9.33979411 7.04863844 -7.5 3.875 C-6.84 3.875 -6.18 3.875 -5.5 3.875 C-5.17 2.885 -4.84 1.895 -4.5 0.875 C-2.5 -0.125 -2.5 -0.125 0 0 Z " fill="#f57c00" transform="translate(121.5,159.125)"/>
<path d="M0 0 C8.93992778 1.91569881 13.21948013 10.54626651 18 17.6875 C19.13309194 19.36267134 20.26724461 21.03712559 21.40234375 22.7109375 C21.98741699 23.57428711 22.57249023 24.43763672 23.17529297 25.32714844 C26.84081394 30.69644514 30.589383 36.00789405 34.33007812 41.32495117 C35.89131264 43.54679557 37.44602846 45.7730737 39 48 C39.42015381 48.59055176 39.84030762 49.18110352 40.27319336 49.78955078 C42.77008808 53.37361548 43.70295402 55.58143185 43 60 C40 62 40 62 37.50805664 61.8671875 C34.45076933 60.8100976 33.65228181 59.79129649 31.87109375 57.125 C31.31728027 56.31329346 30.7634668 55.50158691 30.19287109 54.6652832 C29.61359863 53.78573975 29.03432617 52.90619629 28.4375 52 C27.18927834 50.1598331 25.94057258 48.3199945 24.69140625 46.48046875 C24.07023926 45.55540527 23.44907227 44.6303418 22.80908203 43.67724609 C20.22152586 39.84794232 17.55151768 36.07986357 14.875 32.3125 C14.15908691 31.29410034 14.15908691 31.29410034 13.42871094 30.25512695 C10.84144324 26.57529257 8.21849707 22.92670211 5.55078125 19.3046875 C4.9882666 18.53213623 4.42575195 17.75958496 3.84619141 16.96362305 C2.76378939 15.47830748 1.67141642 14.00019243 0.56787109 12.53051758 C0.08527832 11.86431396 -0.39731445 11.19811035 -0.89453125 10.51171875 C-1.32612549 9.92865967 -1.75771973 9.34560059 -2.20239258 8.74487305 C-3 7 -3 7 -2.7565918 4.96801758 C-2 3 -2 3 0 0 Z " fill="#f57c00" transform="translate(67,37)"/>
<path d="M0 0 C4.87445624 0.02801412 8.0808875 1.00959348 12.375 3.25 C9.80315154 4.53592423 9.1820835 3.97972991 6.5 3.125 C0.38689925 1.6289251 -4.75234786 3.4567589 -10.625 5.25 C-11.95609664 5.59215585 -13.28855267 5.92937962 -14.625 6.25 C-14.625 4.58333333 -14.625 2.91666667 -14.625 1.25 C-13.98691406 1.26160156 -13.34882813 1.27320313 -12.69140625 1.28515625 C-11.86511719 1.29417969 -11.03882813 1.30320313 -10.1875 1.3125 C-8.95193359 1.32990234 -8.95193359 1.32990234 -7.69140625 1.34765625 C-4.90702904 1.21606943 -3.12011004 0.05655789 0 0 Z " fill="#f57c00" transform="translate(212.625,32.75)"/>
<path d="M0 0 C0.66 0.33 1.32 0.66 2 1 C0.02 1.99 0.02 1.99 -2 3 C-2 3.66 -2 4.32 -2 5 C-2.99 5.495 -2.99 5.495 -4 6 C-4 7.32 -4 8.64 -4 10 C-2.35 10.33 -0.7 10.66 1 11 C1 10.01 1 9.02 1 8 C2.65 8 4.3 8 6 8 C2.92000054 11.67230705 0.7517398 12.56802365 -4 13 C-6.97858099 9.66398929 -6.97858099 9.66398929 -7.0625 7.0625 C-5.40648187 3.84787657 -2.85737733 2.18862944 0 0 Z " fill="#f57c00" transform="translate(174,120)"/>
<path d="M0 0 C0.99 0.33 1.98 0.66 3 1 C-0.3 4.63 -3.6 8.26 -7 12 C-7.99 11.67 -8.98 11.34 -10 11 C-8.71034824 9.62437146 -7.37310707 8.29233607 -6 7 C-5.34 7 -4.68 7 -4 7 C-4 6.01 -4 5.02 -4 4 C-3.34 4 -2.68 4 -2 4 C-2 3.34 -2 2.68 -2 2 C-1.34 2 -0.68 2 0 2 C0 1.34 0 0.68 0 0 Z " fill="#f57c00" transform="translate(223,99)"/>
<path d="M0 0 C0.625 1.875 0.625 1.875 1 4 C0.34 4.66 -0.32 5.32 -1 6 C-2.2375 7.299375 -2.2375 7.299375 -3.5 8.625 C-6 11 -6 11 -8 11 C-6.63629701 8.00779732 -5.05091917 5.70973471 -2.875 3.25 C-2.33617187 2.63640625 -1.79734375 2.0228125 -1.2421875 1.390625 C-0.62730469 0.70226563 -0.62730469 0.70226563 0 0 Z " fill="#f57c00" transform="translate(175,45)"/>
<path d="M0 0 C2.625 0.6875 2.625 0.6875 5 2 C6.2077558 5.62326739 5.54311128 6.64146369 4 10 C2.66667905 7.3333581 3.32897967 5.83319697 4 3 C1.58380177 2.74969023 1.58380177 2.74969023 -1 3 C-1.99 4.485 -1.99 4.485 -3 6 C-3.66 6 -4.32 6 -5 6 C-3.63016497 2.83884224 -3.0109362 2.0072908 0 0 Z " fill="#f57c00" transform="translate(133,180)"/>
<path d="M0 0 C3.59634744 3.49359465 6.83451967 7.11098131 10 11 C9.67 11.66 9.34 12.32 9 13 C8.1028125 11.7934375 8.1028125 11.7934375 7.1875 10.5625 C5.19052724 7.77672016 5.19052724 7.77672016 2 7 C0.8125 3.4375 0.8125 3.4375 0 0 Z " fill="#f57c00" transform="translate(174,162)"/>
<path d="M0 0 C0.66 0.99 1.32 1.98 2 3 C1.319375 3.61875 1.319375 3.61875 0.625 4.25 C-1.09686822 5.92669589 -1.09686822 5.92669589 -2 8.125 C-3 10 -3 10 -6 11 C-4.54955729 6.89041233 -2.48889248 3.56741255 0 0 Z " fill="#f57c00" transform="translate(113,207)"/>
<path d="M0 0 C0.66 0.33 1.32 0.66 2 1 C0.02 3.31 -1.96 5.62 -4 8 C-4.99 7.67 -5.98 7.34 -7 7 C-4.69 4.69 -2.38 2.38 0 0 Z " fill="#f57c00" transform="translate(183,37)"/>
<path d="M0 0 C0.68359375 1.765625 0.68359375 1.765625 1 4 C-0.21484375 5.921875 -0.21484375 5.921875 -1.9375 7.75 C-2.50339844 8.36359375 -3.06929688 8.9771875 -3.65234375 9.609375 C-4.31943359 10.29773438 -4.31943359 10.29773438 -5 11 C-5 7.58678765 -4.33132534 6.60527115 -2.5 3.8125 C-2.0359375 3.09707031 -1.571875 2.38164062 -1.09375 1.64453125 C-0.7328125 1.10183594 -0.371875 0.55914062 0 0 Z " fill="#f57c00" transform="translate(127,186)"/>
<path d="M0 0 C0.33 0.66 0.66 1.32 1 2 C-0.73397418 5.65047197 -2.19333016 7.55609075 -6 9 C-4.47291037 5.56404834 -2.40072955 2.88087546 0 0 Z " fill="#f57c00" transform="translate(111,168)"/>
<path d="M0 0 C1.98 0.99 1.98 0.99 4 2 C4 2.99 4 3.98 4 5 C4.66 5 5.32 5 6 5 C5.67 5.99 5.34 6.98 5 8 C0 2.25 0 2.25 0 0 Z " fill="#f57c00" transform="translate(149,144)"/>
<path d="M0 0 C0.66 0.33 1.32 0.66 2 1 C1.34 3.31 0.68 5.62 0 8 C-0.99 8 -1.98 8 -3 8 C-1.125 2.25 -1.125 2.25 0 0 Z " fill="#f57c00" transform="translate(227,77)"/>
<path d="M0 0 C5.57142857 5.14285714 5.57142857 5.14285714 6 9 C5.34 8.67 4.68 8.34 4 8 C4 7.34 4 6.68 4 6 C3.01 5.67 2.02 5.34 1 5 C0.67 3.35 0.34 1.7 0 0 Z " fill="#f57c00" transform="translate(128,78)"/>
<path d="M0 0 C0.33 0.66 0.66 1.32 1 2 C-0.59617578 5.83082186 -1.49984971 7.66656647 -5 10 C-3.66511872 6.40608886 -2.03977277 3.24509304 0 0 Z " fill="#f57c00" transform="translate(164,59)"/>
</svg>
